<?xml version="1.0" standalone="no"?>
<!DOCTYPE svg PUBLIC "-//W3C//DTD SVG 20010904//EN"
 "http://www.w3.org/TR/2001/REC-SVG-20010904/DTD/svg10.dtd">
<svg version="1.0" xmlns="http://www.w3.org/2000/svg"
 width="1341.000000pt" height="1060.000000pt" viewBox="0 0 1341.000000 1060.000000"
 preserveAspectRatio="xMidYMid meet">

<g transform="translate(0.000000,1060.000000) scale(0.100000,-0.100000)"
fill="#000000" stroke="none">
<path d="M10099 8180 c-55 -10 -119 -43 -219 -113 -82 -57 -98 -60 -222 -41
-48 8 -61 14 -82 42 -76 104 -222 138 -366 86 -102 -37 -203 -141 -216 -224
l-6 -37 -47 5 c-113 11 -241 -72 -241 -157 0 -25 -2 -26 -58 -27 -67 0 -107
-19 -164 -76 -101 -101 -125 -265 -54 -371 l25 -36 -57 -32 c-77 -44 -182
-151 -215 -220 -31 -63 -43 -136 -33 -203 9 -57 44 -99 144 -174 40 -29 76
-60 78 -67 7 -17 -9 -48 -51 -100 -52 -65 -68 -103 -62 -153 9 -83 68 -131
163 -135 l57 -2 13 -57 c31 -135 119 -238 205 -238 19 0 19 5 13 88 -6 81 9
207 32 267 4 10 0 15 -10 15 -36 0 -98 42 -125 86 -59 92 -61 231 -6 352 47
102 120 156 210 155 79 0 129 -28 167 -93 40 -65 84 -94 147 -94 90 1 177 76
240 208 38 78 71 189 71 234 0 29 6 28 48 -9 58 -52 117 -72 207 -72 60 -1 92
5 126 20 63 28 124 85 145 137 l18 42 60 -24 c51 -21 71 -24 131 -19 l71 5 11
-77 c14 -96 43 -172 88 -234 87 -118 210 -156 323 -98 l37 19 -3 -65 c-3 -44
2 -80 13 -109 15 -40 57 -86 87 -96 9 -3 4 -24 -20 -75 -18 -39 -38 -93 -45
-122 -6 -28 -14 -51 -17 -51 -3 0 -12 21 -19 47 -24 91 -87 143 -173 143 -47
-1 -68 -12 -87 -48 -19 -36 -5 -60 42 -72 96 -24 147 -73 147 -142 0 -60 34
-75 75 -33 27 26 30 21 25 -32 -1 -18 4 -23 24 -23 31 0 80 -40 96 -80 7 -16
16 -30 20 -30 4 0 16 27 26 60 10 33 21 60 26 60 4 0 23 14 41 30 40 35 75
104 107 212 25 84 43 108 157 200 129 106 159 203 96 311 l-20 33 47 46 c27
26 60 71 74 100 60 123 39 215 -60 264 -47 23 -53 29 -48 50 10 40 -5 93 -39
130 -20 24 -65 52 -132 83 -92 44 -105 53 -155 116 -75 94 -120 125 -182 125
-27 0 -62 -7 -78 -15 l-29 -15 -6 37 c-30 177 -155 311 -343 367 -67 19 -183
27 -243 16z"/>
<path d="M5085 8002 c-68 -33 -133 -114 -170 -214 -16 -43 -16 -50 -1 -96 34
-100 25 -219 -29 -377 -28 -85 -114 -267 -165 -352 l-31 -51 58 -17 c153 -45
243 -130 243 -232 0 -103 -60 -204 -197 -334 -257 -243 -674 -485 -1058 -614
-110 -37 -229 -78 -264 -91 l-63 -24 -1068 0 -1067 0 -21 -92 c-67 -292 -115
-748 -79 -748 4 0 5 5 1 12 -4 7 -3 8 5 4 6 -4 8 -12 5 -18 -4 -6 0 -15 7 -20
10 -7 9 -8 -6 -4 -19 6 -20 2 -15 -84 3 -50 1 -91 -3 -93 -5 -1 -7 -14 -5 -27
l5 -25 11 25 c7 17 11 20 11 8 1 -9 7 -18 14 -21 6 -2 4 -3 -6 -1 -12 2 -17
-2 -13 -11 3 -9 0 -12 -10 -8 -7 3 -14 0 -14 -6 0 -6 7 -11 15 -11 8 0 15 -8
15 -17 0 -16 2 -16 10 -3 8 11 9 8 4 -11 -3 -16 -1 -30 6 -34 8 -5 4 -15 -12
-32 -22 -23 -33 -73 -16 -73 4 0 8 5 8 12 0 6 2 9 4 7 3 -3 1 -21 -3 -42 -5
-21 -5 -37 0 -37 5 0 9 8 10 18 0 12 2 13 6 3 3 -8 0 -19 -8 -25 -18 -14 -21
-46 -3 -39 7 2 15 12 17 21 2 10 3 0 2 -21 -1 -21 -6 -41 -10 -45 -5 -4 -5 -2
-1 5 3 6 2 14 -3 18 -6 3 -9 -9 -8 -29 1 -19 5 -32 9 -30 4 2 10 -5 13 -17 5
-14 2 -25 -6 -30 -8 -5 -9 -9 -4 -9 6 0 11 -27 12 -60 1 -44 8 -68 22 -87 12
-14 21 -22 21 -17 1 14 34 -49 37 -71 2 -16 1 -17 -6 -5 -5 8 -8 17 -6 21 3 3
-4 14 -14 23 -11 10 -22 13 -25 8 -13 -21 13 -85 40 -100 11 -6 13 -11 5 -16
-6 -4 -11 -2 -11 3 0 6 -4 11 -8 11 -14 0 -10 -29 5 -34 7 -3 13 -10 13 -16 0
-6 -4 -8 -10 -5 -6 3 -7 -1 -4 -9 3 -9 10 -16 15 -16 5 0 9 -5 9 -11 0 -5 -5
-7 -11 -3 -8 5 -8 1 0 -14 6 -11 11 -28 11 -38 0 -9 9 -25 20 -34 13 -11 17
-21 10 -25 -5 -3 -10 -14 -10 -23 1 -10 10 -2 24 20 12 21 26 35 29 31 10 -9
9 -25 -1 -19 -8 4 -42 -54 -42 -71 0 -3 11 -3 24 -1 20 4 23 1 24 -23 0 -16
-4 -31 -9 -34 -5 -4 -4 -15 3 -28 7 -12 14 -29 15 -37 2 -8 6 -30 9 -48 11
-55 138 -301 211 -407 l69 -100 493 -3 493 -2 -60 -69 c-89 -104 -225 -287
-298 -403 -166 -265 -163 -513 9 -681 32 -32 57 -60 55 -61 -1 -2 -66 -15
-143 -30 -345 -68 -521 -121 -629 -190 -170 -109 -219 -292 -125 -477 46 -91
162 -188 311 -259 144 -68 317 -108 563 -131 130 -11 817 -15 980 -5 1005 63
1941 173 2592 307 426 87 867 216 1134 334 l106 46 144 3 c214 5 352 49 594
193 150 89 493 333 494 353 1 3 -59 24 -132 48 -203 66 -472 204 -685 350
l-71 49 103 25 c207 51 352 151 442 304 10 17 17 14 80 -42 222 -194 427 -335
591 -404 l53 -22 87 78 c319 287 726 748 839 950 20 36 40 62 44 57 3 -4 28
-62 54 -128 194 -485 467 -806 784 -922 90 -33 231 -41 326 -19 103 25 256
107 311 168 89 100 170 316 214 578 25 142 43 502 45 880 1 264 -10 348 -67
500 -59 154 -140 251 -267 315 -82 41 -158 57 -274 56 -178 -1 -336 -64 -462
-183 l-70 -67 -19 32 c-10 18 -68 109 -130 202 -121 183 -238 329 -332 415
-160 146 -326 200 -444 142 -42 -20 -49 -29 -69 -82 -73 -196 -226 -354 -363
-377 -79 -12 -170 40 -212 121 -42 84 -29 182 46 344 l39 86 -15 45 c-36 106
-123 184 -250 224 -58 18 -92 22 -200 21 -397 -3 -831 -174 -1265 -498 -52
-39 -162 -138 -245 -221 -294 -294 -425 -535 -466 -856 l-12 -89 -36 -9 c-20
-6 -66 -17 -104 -25 -87 -20 -153 -54 -205 -106 l-42 -43 -116 79 -116 78 6
50 c3 28 9 90 12 139 l7 87 -257 0 -257 0 -92 39 c-207 88 -330 115 -517 115
-165 -1 -262 -22 -431 -94 -112 -49 -118 -50 -214 -50 l-98 0 6 -59 6 -59 -57
-37 c-75 -50 -227 -166 -326 -248 -62 -52 -83 -64 -93 -55 -14 11 -9 23 9 23
10 0 13 9 21 60 2 11 9 33 15 48 7 16 9 33 6 38 -3 6 -1 15 5 22 5 7 12 30 14
50 2 20 7 40 10 44 11 11 8 25 -4 17 -8 -5 -8 -1 0 14 14 27 14 35 -1 27 -7
-4 -5 0 5 8 20 16 23 31 5 24 -9 -3 -13 5 -13 24 0 35 3 36 14 7 l8 -22 5 22
c4 12 2 22 -3 22 -4 0 -13 10 -19 23 -10 20 -10 20 3 5 17 -22 24 -23 24 -3 0
8 -5 15 -11 15 -6 0 -5 4 3 9 19 12 27 65 9 59 -7 -3 -12 -14 -12 -26 1 -11
-4 -23 -10 -25 -7 -3 -11 11 -11 38 0 24 3 41 8 38 4 -2 4 -10 1 -16 -5 -9 -3
-8 6 0 11 10 10 16 -4 32 -11 13 -14 21 -6 26 5 3 8 10 6 14 -3 3 4 7 14 7 10
0 17 -4 14 -7 -2 -4 0 -10 5 -14 6 -3 8 5 5 20 -3 16 0 25 8 25 9 0 8 3 -2 10
-13 9 -13 11 0 20 8 5 11 10 5 10 -13 -1 -45 -25 -45 -35 0 -4 8 -4 18 0 13 5
14 3 5 -6 -14 -14 -36 -2 -29 17 3 8 1 14 -4 14 -6 0 -10 5 -10 11 0 8 5 7 15
-1 9 -7 19 -10 22 -6 4 4 1 11 -7 17 -11 7 -7 8 13 3 27 -6 27 -6 23 35 -2 23
0 41 4 41 4 0 8 73 9 161 2 140 0 161 -13 156 -11 -4 -13 -1 -9 11 4 9 11 20
16 23 19 13 -26 459 -62 618 -10 47 -7 49 34 20 34 -23 218 -116 285 -143 l45
-18 -29 -8 c-45 -14 -66 -39 -66 -79 0 -20 7 -47 16 -59 17 -25 105 -72 202
-108 l62 -24 720 0 719 0 128 41 c243 79 323 128 323 200 0 29 -6 42 -26 58
-15 12 -35 21 -45 21 -40 0 -16 18 64 48 94 36 224 109 298 167 103 82 178
214 166 292 -13 77 -68 115 -187 130 l-64 8 85 42 c189 94 337 215 389 318 31
64 40 173 16 210 -22 34 -52 48 -119 54 l-58 6 92 60 c211 138 322 292 321
445 -2 137 -121 154 -375 54 -12 -4 8 34 53 102 156 237 225 424 199 545 -19
89 -110 143 -215 126 -63 -10 -128 -50 -199 -122 -89 -88 -171 -212 -256 -383
l-66 -133 -6 93 c-15 226 -97 336 -229 306 -86 -19 -173 -90 -218 -178 -12
-23 -29 -43 -38 -46 -52 -15 -126 -62 -191 -121 -61 -56 -73 -63 -68 -43 32
134 41 217 42 385 0 211 -11 257 -75 320 -35 34 -46 39 -97 42 -42 3 -69 -2
-98 -15z m-2672 -2827 c36 -15 64 -41 30 -28 -16 6 -16 5 -4 -10 7 -9 17 -15
21 -12 4 2 16 -5 26 -18 l19 -22 -24 20 c-17 14 -23 16 -19 5 2 -8 14 -20 26
-26 13 -6 26 -15 30 -19 4 -5 1 -5 -5 -1 -8 4 -13 2 -13 -6 0 -10 -3 -9 -9 1
-8 12 -12 12 -25 2 -19 -16 -37 -6 -29 16 4 10 2 14 -4 10 -6 -4 -9 5 -7 23 3
24 0 30 -16 30 -18 0 -25 11 -21 33 1 5 -9 6 -21 2 -18 -5 -20 -4 -8 4 18 13
11 14 53 -4z m792 5 c3 -5 1 -10 -6 -10 -8 0 -8 -4 1 -15 11 -13 10 -14 -3 -9
-9 3 -15 14 -14 25 1 21 12 25 22 9z m-1597 -23 c2 -9 8 -17 13 -17 6 0 7 5 4
10 -12 20 2 9 39 -30 21 -23 35 -40 30 -38 -5 2 -10 -1 -11 -6 -1 -10 -24 -26
-36 -26 -5 0 -1 7 7 16 26 25 18 40 -7 15 l-24 -22 2 35 c3 38 -5 44 -52 41
-18 -1 -31 1 -29 4 2 3 5 13 9 22 7 21 51 17 55 -4z m1626 8 c-4 -8 -8 -15
-10 -15 -2 0 -4 7 -4 15 0 8 4 15 10 15 5 0 7 -7 4 -15z m-895 -2 c-3 -20 2
-27 11 -13 5 8 12 11 17 7 10 -10 -18 -28 -31 -20 -5 4 -7 -1 -3 -10 9 -23 -6
-21 -20 3 -11 16 -10 21 5 29 21 13 22 13 21 4z m812 -6 c-6 -8 -7 -18 -3 -22
4 -5 2 -5 -4 -2 -6 4 -25 -11 -42 -32 -31 -38 -31 -38 -7 -38 14 0 22 4 19 12
-3 6 1 12 8 12 8 0 14 -8 14 -17 0 -11 -8 -16 -21 -15 -11 0 -30 -2 -42 -6
-18 -7 -21 -5 -16 9 6 15 5 16 -12 2 -11 -8 -5 4 13 27 18 24 38 42 45 40 6
-1 11 3 12 8 1 18 16 35 32 35 12 0 13 -3 4 -13z m110 -17 c6 0 7 5 4 10 -9
14 1 12 13 -3 9 -10 4 -13 -23 -14 -27 0 -31 2 -22 12 7 7 14 9 15 4 2 -5 8
-9 13 -9z m-76 -8 c-3 -3 -11 0 -18 7 -9 10 -8 11 6 5 10 -3 15 -9 12 -12z
m-884 -16 c5 3 9 0 9 -6 0 -15 -23 -7 -26 8 -1 7 0 8 3 2 2 -5 9 -8 14 -4z
m-774 -21 c8 -9 13 -21 10 -28 -6 -15 -61 -16 -63 -2 -1 6 3 9 8 7 6 -2 8 4 4
13 -3 9 -2 13 4 10 6 -3 10 -1 10 4 0 15 9 14 27 -4z m743 5 c0 -5 -5 -10 -11
-10 -5 0 -7 5 -4 10 3 6 8 10 11 10 2 0 4 -4 4 -10z m30 -35 c0 -9 -6 -12 -15
-9 -19 8 -42 -16 -51 -51 -6 -24 -4 -27 10 -22 14 5 15 3 6 -12 -5 -11 -8 -34
-5 -53 l5 -33 -12 28 c-7 15 -15 27 -20 27 -4 0 -13 10 -19 23 -12 22 -12 22
9 4 21 -19 21 -19 19 17 -2 31 -4 34 -14 19 -7 -9 -13 -11 -13 -5 0 7 11 22
24 33 14 13 22 28 19 36 -5 12 -1 14 15 8 14 -4 22 -2 22 5 0 6 5 8 10 5 6 -3
10 -13 10 -20z m-588 -31 c-2 -22 0 -26 8 -14 8 13 11 13 19 1 5 -8 7 -21 3
-29 -3 -10 -1 -13 6 -8 6 3 14 1 18 -5 4 -7 3 -9 -4 -5 -6 3 -14 2 -17 -4 -10
-16 16 -42 34 -35 11 3 10 0 -3 -10 -18 -13 -22 -13 -37 1 -13 11 -16 22 -10
33 10 19 3 44 -9 36 -10 -6 -25 34 -16 42 3 4 0 13 -7 21 -10 13 -9 14 3 10
10 -3 14 -15 12 -34z m628 32 c0 -3 -4 -8 -10 -11 -5 -3 -10 -1 -10 4 0 6 5
11 10 11 6 0 10 -2 10 -4z m-887 -41 c-3 -9 -8 -14 -10 -11 -3 3 -2 9 2 15 9
16 15 13 8 -4z m1092 -5 c3 -6 -1 -7 -9 -4 -18 7 -21 14 -7 14 6 0 13 -4 16
-10z m511 -10 c0 -12 -4 -16 -9 -11 -5 5 -6 14 -3 20 10 15 12 14 12 -9z m-26
0 c0 -5 -2 -10 -4 -10 -3 0 -8 5 -11 10 -3 6 -1 10 4 10 6 0 11 -4 11 -10z
m-475 -12 c5 4 5 1 1 -5 -4 -8 -2 -13 5 -13 10 0 10 -3 2 -11 -7 -7 -19 -8
-30 -4 -10 5 -22 7 -26 6 -4 -1 -3 8 3 20 8 15 15 18 24 10 7 -6 17 -7 21 -3z
m490 -18 c2 -4 -8 -7 -24 -6 -17 1 -27 6 -24 12 4 12 40 8 48 -6z m-1587 -15
c-3 -3 -9 2 -12 12 -6 14 -5 15 5 6 7 -7 10 -15 7 -18z m1874 -19 c-5 -18 -7
-18 -10 -3 -2 9 -8 17 -14 17 -6 0 -5 6 2 15 17 20 30 2 22 -29z m-1625 2 c-3
-7 -5 -2 -5 12 0 14 2 19 5 13 2 -7 2 -19 0 -25z m-249 -7 c1 -1 -3 -7 -10
-15 -10 -10 -15 -11 -21 -2 -5 6 -5 -3 -2 -21 4 -18 1 -40 -5 -50 -9 -15 -10
-11 -4 16 4 23 3 31 -5 27 -7 -4 -9 -1 -6 8 3 9 7 22 9 30 4 12 17 14 44 7z
m1131 -4 c8 -10 7 -14 -4 -14 -8 0 -15 6 -15 14 0 7 2 13 4 13 2 0 9 -6 15
-13z m386 -65 c0 -48 -3 -58 -17 -58 -12 0 -14 4 -7 12 6 7 4 16 -7 24 -14 12
-14 14 1 23 12 6 13 12 5 22 -8 9 -6 14 5 19 10 3 13 11 9 18 -4 7 -3 9 2 5 4
-4 8 -34 9 -65z m-1241 32 c3 -8 3 -14 0 -14 -7 0 -34 27 -34 34 0 11 29 -6
34 -20z m487 1 c5 4 9 1 9 -4 0 -6 -7 -11 -15 -11 -9 0 -15 9 -14 23 1 17 2
18 6 4 2 -9 9 -15 14 -12z m306 -2 c0 -9 -4 -10 -14 -2 -7 6 -13 12 -13 14 0
1 6 2 13 2 8 0 14 -6 14 -14z m-730 -20 c0 -8 -5 -9 -11 -4 -6 4 -18 11 -26
14 -8 3 -3 5 11 4 14 -1 26 -7 26 -14z m800 2 c0 -8 -4 -15 -9 -15 -4 0 -8 7
-8 15 0 8 4 15 8 15 5 0 9 -7 9 -15z m42 -23 c13 -10 14 -12 1 -10 -19 4 -30
18 -29 38 1 13 1 13 6 0 4 -8 13 -21 22 -28z m676 29 c3 -5 1 -12 -5 -16 -5
-3 -10 1 -10 9 0 18 6 21 15 7z m-1501 -33 c-5 -7 -2 -9 9 -5 12 4 15 1 12
-14 -3 -14 0 -19 8 -16 7 3 24 -5 37 -16 14 -12 18 -18 8 -14 -9 3 -19 1 -22
-6 -3 -7 -4 -3 -3 8 1 13 -4 20 -15 20 -10 0 -18 5 -19 10 0 6 -7 14 -15 18
-13 7 -11 27 2 27 3 0 2 -5 -2 -12z m1530 1 c-2 -4 2 -10 8 -12 8 -3 6 -6 -4
-6 -21 -1 -24 -17 -5 -24 9 -4 9 -6 0 -6 -14 -1 -36 36 -29 48 3 4 12 8 20 8
8 0 13 -4 10 -8z m-1534 -40 c0 -3 -6 -6 -12 -6 -7 0 -14 11 -14 24 -2 22 -1
23 12 6 7 -10 14 -21 14 -24z m1119 27 c9 -11 9 -16 -1 -22 -7 -4 -10 -4 -6 1
4 4 3 14 -3 22 -6 7 -9 13 -6 13 2 0 10 -6 16 -14z m-1479 -12 c0 -8 -5 -12
-10 -9 -6 4 -8 11 -5 16 9 14 15 11 15 -7z m722 -1 c-6 -3 -9 -10 -6 -16 5 -8
3 -8 -6 0 -11 10 -16 9 -27 -5 -13 -15 -13 -15 -4 3 5 11 20 21 33 22 13 0 17
-1 10 -4z m425 -15 c-3 -8 -6 -5 -6 6 -1 11 2 17 5 13 3 -3 4 -12 1 -19z m27
6 c3 -8 2 -12 -4 -9 -6 3 -10 10 -10 16 0 14 7 11 14 -7z m29 -1 c-3 -7 -6
-13 -8 -13 -2 0 -5 6 -8 13 -3 8 1 14 8 14 7 0 11 -6 8 -14z m-1275 -23 c3
-34 -34 -63 -49 -39 -7 11 -9 10 -9 -3 0 -9 6 -18 13 -21 6 -2 -1 -4 -17 -4
-15 0 -24 2 -19 6 5 3 12 14 16 23 4 11 15 15 31 14 23 -3 24 -1 14 12 -11 13
-11 14 1 7 11 -6 13 -4 8 7 -4 13 0 28 8 28 0 0 2 -13 3 -30z m1312 5 c7 -8 9
-15 5 -15 -4 0 -2 -7 5 -16 8 -8 9 -14 4 -13 -21 4 -35 -2 -29 -12 4 -6 13 -8
21 -5 8 3 14 1 14 -4 0 -5 -10 -9 -23 -8 -19 2 -23 8 -23 35 0 18 5 33 11 33
5 0 3 5 -5 10 -8 5 -10 10 -4 10 6 0 17 -7 24 -15z m220 11 c0 -3 -4 -8 -10
-11 -5 -3 -10 -1 -10 4 0 6 5 11 10 11 6 0 10 -2 10 -4z m490 -35 c6 -13 7
-21 2 -17 -6 3 -12 0 -15 -6 -3 -7 -5 2 -4 20 0 18 1 31 2 30 1 -2 8 -14 15
-27z m-1260 -6 c-7 -8 -16 -15 -21 -15 -5 0 -1 8 9 18 20 22 31 19 12 -3z
m-41 -7 c-5 -10 -15 -18 -22 -19 -7 0 -3 -5 8 -10 16 -7 14 -8 -9 -4 -31 6
-79 35 -59 35 7 0 15 -4 18 -10 3 -5 14 -10 23 -9 11 0 13 2 4 6 -10 4 -9 8 4
17 26 20 45 16 33 -6z m792 8 c12 7 12 5 0 -9 -10 -12 -18 -14 -31 -7 -10 6
-22 10 -27 10 -4 -1 4 -8 20 -16 15 -8 33 -12 40 -8 7 4 8 3 4 -2 -12 -13 -86
-13 -84 0 3 16 -56 15 -75 -2 -10 -8 -18 -10 -18 -5 0 14 28 26 65 28 17 0 36
4 43 8 6 5 17 5 22 2 6 -3 10 0 10 7 0 10 2 10 9 -1 5 -8 14 -10 22 -5z
m-1601 -16 c18 -12 2 -12 -25 0 -13 6 -15 9 -5 9 8 0 22 -4 30 -9z m700 3 c0
-5 -5 -15 -10 -23 -8 -12 -10 -11 -10 8 0 12 5 22 10 22 6 0 10 -3 10 -7z
m-43 -18 c0 -17 -13 -20 -21 -6 -4 5 0 12 6 14 7 3 13 6 14 6 0 1 1 -6 1 -14z
m223 5 c0 -5 -4 -10 -10 -10 -5 0 -10 5 -10 10 0 6 5 10 10 10 6 0 10 -4 10
-10z m-900 -4 c0 -2 -13 -6 -29 -8 -17 -2 -28 -1 -25 4 5 8 54 12 54 4z m2150
-6 c0 -5 -2 -10 -4 -10 -3 0 -8 5 -11 10 -3 6 -1 10 4 10 6 0 11 -4 11 -10z
m59 1 c10 -7 7 -9 -12 -8 -14 1 -23 5 -20 10 6 9 15 9 32 -2z m48 -7 c-3 -3
-12 -4 -19 -1 -8 3 -5 6 6 6 11 1 17 -2 13 -5z m-2310 -186 c-1 -10 -4 -18 -8
-18 -4 0 -9 8 -11 18 -3 11 0 19 8 19 7 0 12 -9 11 -19z m2347 -64 c20 -8 11
-24 -12 -23 -12 0 -13 2 -3 6 11 5 11 7 0 14 -16 10 -8 12 15 3z m36 -29 c-9
-11 -9 -15 -1 -15 7 0 6 -8 -4 -24 -13 -19 -13 -25 -3 -29 8 -4 7 -6 -4 -6
-19 -1 -25 24 -8 34 6 3 10 12 10 18 -1 7 -10 1 -21 -12 -11 -13 -22 -22 -24
-19 -5 5 51 68 61 68 3 0 1 -7 -6 -15z m-2390 -95 c-6 -11 -16 -20 -22 -20 -6
0 -3 9 7 20 10 11 20 20 22 20 2 0 -1 -9 -7 -20z m2354 11 c3 -5 -1 -11 -9
-14 -9 -4 -12 -1 -8 9 6 16 10 17 17 5z m-2347 -68 c-3 -10 -5 -4 -5 12 0 17
2 24 5 18 2 -7 2 -21 0 -30z m2798 -252 c3 -5 2 -12 -3 -15 -5 -3 -9 1 -9 9 0
17 3 19 12 6z m-2725 -130 c0 -5 3 -18 6 -28 5 -15 3 -15 -7 2 -7 11 -17 23
-23 27 -7 5 -4 8 7 8 9 0 17 -4 17 -9z m-22 -76 c-3 -3 -9 2 -12 12 -6 14 -5
15 5 6 7 -7 10 -15 7 -18z m2224 -20 c6 -14 15 -25 20 -25 5 0 6 -5 2 -11 -4
-8 -12 -3 -21 12 -14 23 -14 23 -10 2 3 -13 -2 -27 -12 -35 -14 -12 -15 -11
-2 5 7 9 9 17 4 17 -5 0 -9 9 -10 20 -1 11 2 18 8 15 5 -4 9 -2 9 4 0 5 -6 12
-12 14 -10 4 -10 6 0 6 7 1 18 -10 24 -24z m38 21 c0 -2 -7 -6 -15 -10 -8 -3
-15 -1 -15 4 0 6 7 10 15 10 8 0 15 -2 15 -4z m-2230 -52 c0 -3 -7 -1 -15 6
-8 7 -15 17 -15 22 0 5 7 3 15 -6 8 -8 15 -18 15 -22z m2193 -44 c-3 -11 -9
-20 -15 -20 -5 0 -4 9 2 20 6 11 12 20 14 20 2 0 2 -9 -1 -20z m-13 -45 c5 3
8 -3 7 -14 -2 -26 -23 -16 -24 12 0 12 1 16 4 9 3 -6 9 -10 13 -7z m-430 -100
c0 -2 -9 -9 -20 -15 -12 -6 -20 -7 -20 -1 0 5 8 12 18 14 9 3 18 5 20 6 1 0 2
-1 2 -4z m292 -5 c-12 -5 -27 -20 -32 -32 -6 -16 -9 -18 -9 -6 -1 9 6 24 15
32 8 9 23 16 32 15 12 0 10 -3 -6 -9z m27 -21 c-12 -17 -32 -35 -44 -41 -15
-7 -22 -17 -20 -29 5 -23 -55 -83 -69 -69 -14 14 -29 12 -20 -2 5 -9 3 -9 -9
1 -9 7 -15 17 -12 21 3 4 -3 14 -12 21 -15 12 -16 12 -10 -5 6 -16 5 -17 -8
-6 -20 17 1 33 25 20 11 -6 21 -5 28 2 9 9 12 9 12 0 0 -7 -4 -12 -10 -12 -5
0 -10 -4 -10 -9 0 -6 9 -9 20 -8 14 1 19 6 15 17 -4 13 -3 13 7 -1 10 -12 16
-13 24 -5 8 8 7 15 -5 24 -15 12 -14 13 1 8 10 -3 20 0 24 6 4 7 3 8 -4 4 -7
-4 -12 -3 -12 2 0 4 16 16 35 25 20 9 41 28 47 42 6 14 15 25 20 25 5 0 0 -14
-13 -31z m46 15 c-11 -8 -19 -17 -17 -19 1 -3 0 -5 -3 -5 -3 0 -4 3 -4 8 4 22
13 32 28 32 13 -1 13 -3 -4 -16z m-65 -8 c0 -2 -8 -10 -17 -17 -16 -13 -17
-12 -4 4 13 16 21 21 21 13z m-304 -25 c-12 -13 -24 -17 -39 -12 -20 5 -20 6
6 9 15 2 27 8 27 13 0 5 5 9 12 9 6 0 4 -8 -6 -19z m-1679 -26 c-24 -23 -30
-18 -10 9 10 13 19 20 21 15 2 -5 -3 -16 -11 -24z m2013 22 c0 -2 -10 -12 -22
-23 l-23 -19 19 23 c18 21 26 27 26 19z m-1176 -48 c-8 -14 -21 -11 -21 5 0 8
6 12 14 9 7 -3 10 -9 7 -14z m41 11 c3 -6 -1 -7 -9 -4 -18 7 -21 14 -7 14 6 0
13 -4 16 -10z m140 -1 c-4 -5 -1 -9 4 -9 6 0 11 5 11 10 0 6 4 10 8 10 5 0 9
-6 9 -14 0 -9 -9 -13 -24 -11 -32 3 -49 20 -23 22 11 1 18 -2 15 -8z m492 2
c1 -1 -8 -11 -20 -24 -12 -13 -24 -22 -26 -20 -7 5 -10 36 -5 45 4 6 32 5 51
-1z m73 -1 c-18 -12 -30 -13 -30 -2 0 4 10 9 22 9 18 2 20 0 8 -7z m243 -3
c-4 -6 0 -8 10 -4 11 4 14 2 10 -9 -5 -13 -8 -13 -29 1 -27 18 -38 19 -28 4 4
-8 0 -8 -15 0 -11 7 -21 13 -21 14 0 1 18 3 40 3 25 1 37 -2 33 -9z m-809 -36
c17 -18 17 -21 4 -15 -10 3 -18 10 -18 15 0 5 -5 9 -11 9 -5 0 -7 -5 -3 -12 4
-7 3 -8 -5 -4 -6 4 -8 12 -5 18 5 7 2 9 -8 6 -8 -4 -21 -2 -29 3 -9 6 -3 8 20
5 18 -2 43 -13 55 -25z m526 5 c-7 -7 -14 -6 -21 1 -9 9 -7 12 9 10 14 -1 18
-5 12 -11z m-492 -21 c-3 -3 -9 2 -12 12 -6 14 -5 15 5 6 7 -7 10 -15 7 -18z
m453 -34 c-5 -9 -18 -24 -29 -34 -19 -17 -19 -17 -17 15 4 52 5 54 15 38 6 -9
6 -18 0 -24 -6 -6 -10 -14 -10 -20 0 -5 6 -1 14 9 7 10 11 28 8 39 -5 19 -3
19 11 7 12 -9 14 -18 8 -30z m-1446 9 c-8 -13 1 -13 28 1 21 10 21 10 3 -5
-11 -9 -24 -16 -29 -16 -5 0 -7 -6 -4 -13 3 -7 -1 -21 -8 -30 -11 -15 -13 -16
-18 -2 -4 8 -1 14 5 12 6 -1 12 12 13 28 3 34 3 35 11 35 3 0 2 -4 -1 -10z
m77 3 c-6 -2 -9 -10 -6 -15 4 -7 2 -8 -5 -4 -13 9 -5 26 12 25 9 0 8 -2 -1 -6z
m45 -6 c0 -7 -9 -14 -19 -14 -16 -2 -17 1 -8 13 15 18 27 18 27 1z m116 1 c-6
-12 11 -10 23 2 6 6 10 3 11 -10 1 -11 -3 -23 -9 -26 -7 -4 -6 -9 2 -14 9 -5
8 -8 -2 -12 -7 -3 -33 6 -58 19 -39 20 -41 23 -15 18 l30 -5 -30 14 c-25 12
-27 14 -10 18 30 7 64 4 58 -4z m478 -5 c11 -15 11 -16 -1 -5 -19 16 -35 16
-21 -1 8 -10 7 -14 -3 -14 -11 0 -14 12 -7 35 3 8 21 -1 32 -15z m329 -19 c0
20 0 20 15 0 8 -10 14 -23 15 -29 0 -5 -5 -3 -10 5 -9 13 -13 12 -28 -6 -18
-21 -19 -21 -30 -3 -17 27 -14 38 3 15 13 -17 15 -17 15 -4 0 9 -4 20 -10 23
-5 3 -10 14 -10 23 0 12 6 7 20 -13 16 -24 20 -26 20 -11z m7 30 c-3 -3 -12
-4 -19 -1 -8 3 -5 6 6 6 11 1 17 -2 13 -5z m-359 -70 c1 -14 -2 -23 -7 -20 -7
5 -8 23 -2 44 3 9 7 -2 9 -24z m-388 -27 c0 -6 6 -3 13 8 16 21 31 6 21 -20
-5 -13 -8 -14 -15 -3 -7 10 -9 10 -9 -3 0 -23 11 -31 26 -18 10 8 13 6 11 -9
-1 -14 -7 -19 -22 -17 -19 4 -19 3 3 -12 22 -16 30 -43 12 -43 -5 0 -6 7 -3
17 4 10 2 14 -5 9 -14 -8 -22 6 -27 45 -5 36 -23 61 -38 52 -6 -3 -7 -1 -3 5
8 13 36 5 36 -11z m766 -2 c1 -15 -2 -22 -9 -18 -6 4 -8 0 -4 -10 9 -24 0 -21
-14 5 -10 18 -8 24 7 35 10 7 18 13 18 13 1 0 2 -11 2 -25z m287 5 c-3 -11
-10 -23 -16 -27 -6 -3 -7 -1 -3 5 4 7 1 12 -6 12 -8 1 -6 6 6 15 25 19 25 19
19 -5z m39 13 c-6 -2 -10 -8 -7 -12 2 -5 -1 -16 -9 -26 -12 -17 -13 -17 -13 1
0 23 15 44 31 43 7 0 6 -2 -2 -6z m-1104 -48 c-3 -3 -9 2 -12 12 -6 14 -5 15
5 6 7 -7 10 -15 7 -18z m780 -56 c-3 -8 -7 -3 -11 10 -4 17 -3 21 5 13 5 -5 8
-16 6 -23z m272 25 c0 -8 -19 -13 -24 -6 -3 5 1 9 9 9 8 0 15 -2 15 -3z m-716
-16 c-3 -5 0 -17 8 -26 12 -15 11 -16 -4 -4 -14 11 -18 10 -27 -5 -10 -17 -10
-17 -11 0 0 9 4 17 10 17 5 0 7 6 4 13 -3 8 2 14 10 14 8 0 13 -4 10 -9z m510
-40 c-3 -5 -16 2 -29 14 -13 12 -21 26 -18 31 3 5 16 -1 29 -14 13 -12 21 -26
18 -31z m144 17 c-12 -13 -26 -21 -31 -18 -5 3 1 16 14 29 12 13 26 21 31 18
5 -3 -2 -16 -14 -29z m25 -20 c-21 -29 -38 -33 -23 -6 8 16 20 25 38 30 2 1
-5 -10 -15 -24z m-206 -3 c4 -16 14 -19 70 -17 42 1 59 -1 49 -7 -9 -5 -26 -6
-39 -2 -19 6 -20 5 -9 -9 8 -9 21 -13 30 -10 9 3 15 4 12 2 -3 -2 -18 -15 -33
-29 -21 -18 -26 -20 -21 -7 3 9 11 17 17 17 8 0 8 3 0 11 -8 8 -17 8 -33 -1
-19 -10 -24 -9 -38 12 -9 12 -17 25 -17 28 0 3 -4 11 -8 18 -5 7 -3 12 3 12 7
0 14 -8 17 -18z m-676 -29 c12 -14 12 -16 0 -8 -10 6 -13 4 -9 -6 8 -20 16
-46 11 -36 -3 4 -10 4 -15 1 -7 -4 -8 -2 -4 4 4 7 2 20 -3 29 -10 16 -10 17
-11 1 0 -9 -4 -20 -10 -23 -11 -7 -2 23 13 43 12 15 12 15 28 -5z m159 7 c0
-5 -7 -10 -16 -10 -10 0 -14 -6 -10 -15 3 -8 0 -14 -6 -12 -6 1 -15 -9 -19
-23 l-7 -25 -1 25 c-1 34 18 57 57 69 1 1 2 -3 2 -9z m25 1 c3 -5 2 -12 -3
-15 -5 -3 -9 1 -9 9 0 17 3 19 12 6z m635 -32 c-17 -11 -34 -19 -38 -19 -4 0
1 5 11 11 9 6 14 15 11 21 -4 7 -2 8 4 4 7 -4 12 -1 12 10 0 14 3 14 15 4 14
-11 12 -15 -15 -31z m-689 -49 c-38 -35 -62 -50 -82 -50 -15 0 -30 4 -33 8 -3
5 8 8 24 7 16 -1 35 2 42 6 11 7 11 9 0 9 -8 0 -10 5 -6 12 5 8 2 9 -12 4 -10
-5 -26 -9 -34 -11 -11 -1 -11 -1 -1 2 11 4 11 7 1 13 -8 5 0 7 19 6 18 -1 36
-8 41 -16 7 -12 15 -7 42 23 18 20 37 37 43 37 5 0 -14 -22 -44 -50z m2862
-373 c151 -203 314 -351 480 -438 43 -22 77 -43 74 -45 -4 -5 -283 -62 -676
-139 -239 -47 -489 -103 -1476 -335 -44 -10 -81 -17 -83 -16 -1 2 39 27 90 56
143 81 323 198 708 460 394 269 519 363 654 492 70 68 97 87 116 85 19 -1 46
-30 113 -120z"/>
<path d="M2400 5160 c0 -6 7 -10 15 -10 8 0 15 2 15 4 0 2 -7 6 -15 10 -8 3
-15 1 -15 -4z"/>
<path d="M2440 5100 c6 -11 8 -25 5 -30 -3 -6 -2 -10 4 -10 18 0 22 19 9 40
-17 26 -32 26 -18 0z"/>
<path d="M1568 5148 c9 -9 15 -9 24 0 9 9 7 12 -12 12 -19 0 -21 -3 -12 -12z"/>
<path d="M1634 5124 c2 -10 8 -20 14 -22 17 -5 15 13 -2 27 -12 10 -14 9 -12
-5z"/>
<path d="M3083 5108 c-23 -30 -24 -41 -2 -21 12 12 20 25 17 28 -3 3 -10 0
-15 -7z"/>
<path d="M1497 5077 c-3 -7 3 -13 14 -13 22 0 25 12 5 19 -8 3 -16 0 -19 -6z"/>
<path d="M2525 4980 c3 -5 8 -10 11 -10 2 0 4 5 4 10 0 6 -5 10 -11 10 -5 0
-7 -4 -4 -10z"/>
<path d="M2954 4869 c-3 -6 -2 -15 3 -20 5 -5 9 -1 9 11 0 23 -2 24 -12 9z"/>
<path d="M2827 4749 c7 -7 15 -10 18 -7 3 3 -2 9 -12 12 -14 6 -15 5 -6 -5z"/>
<path d="M3236 3448 c3 -5 10 -6 15 -3 13 9 11 12 -6 12 -8 0 -12 -4 -9 -9z"/>
<path d="M2830 3510 c0 -5 5 -10 10 -10 6 0 10 5 10 10 0 6 -4 10 -10 10 -5 0
-10 -4 -10 -10z"/>
<path d="M1640 3426 c14 -8 19 -15 12 -16 -7 0 -11 -4 -7 -10 7 -11 32 -3 38
14 3 6 -3 12 -12 12 -9 1 -25 4 -36 8 -13 5 -11 2 5 -8z"/>
<path d="M2541 3193 c-2 -20 16 -24 30 -5 13 15 12 16 -3 4 -13 -10 -17 -10
-21 0 -4 9 -6 9 -6 1z"/>
<path d="M9620 6757 c-96 -34 -150 -73 -150 -108 0 -49 32 -56 99 -23 81 42
156 40 239 -3 76 -40 104 -41 131 -7 30 38 26 62 -17 103 -68 65 -184 79 -302
38z"/>
<path d="M9540 6371 c-50 -26 -93 -111 -87 -169 6 -55 30 -82 75 -82 100 0
180 172 113 244 -29 31 -54 33 -101 7z"/>
<path d="M10385 6031 c-38 -23 -61 -57 -76 -114 -21 -76 12 -137 72 -137 24 0
42 11 74 43 114 113 56 285 -70 208z"/>
<path d="M9617 5846 c-65 -98 -26 -237 73 -267 33 -10 44 -9 84 10 46 23 93
81 81 101 -11 18 -25 11 -64 -30 -39 -42 -73 -50 -112 -30 -46 25 -62 109 -34
177 24 58 3 87 -28 39z"/>
<path d="M3977 4729 c-16 -89 -27 -197 -23 -227 2 -18 0 -35 -5 -38 -5 -3 -9
-23 -9 -45 l0 -39 931 0 932 0 -7 103 c-4 56 -13 138 -19 181 -10 66 -15 80
-32 84 -11 2 -412 6 -891 9 l-871 5 -6 -33z"/>
<path d="M1160 4459 c0 -5 5 -7 10 -4 6 3 10 8 10 11 0 2 -4 4 -10 4 -5 0 -10
-5 -10 -11z"/>
<path d="M1173 4442 c-11 -7 -6 -62 6 -62 4 0 7 16 8 35 1 19 0 35 0 35 -1 0
-7 -4 -14 -8z"/>
<path d="M1190 4410 c0 -5 5 -10 11 -10 5 0 7 5 4 10 -3 6 -8 10 -11 10 -2 0
-4 -4 -4 -10z"/>
<path d="M3556 4243 c-8 -9 14 -33 30 -33 8 0 14 3 14 8 0 11 -37 32 -44 25z"/>
<path d="M1349 3492 c7 -5 10 -15 7 -21 -4 -6 -2 -11 4 -11 17 0 8 33 -10 37
-12 4 -13 3 -1 -5z"/>
<path d="M10960 20 c0 -13 27 -13 35 0 3 6 -3 10 -14 10 -12 0 -21 -4 -21 -10z"/>
</g>
</svg>
